<?xml version="1.0" standalone="no"?>
<!DOCTYPE svg PUBLIC "-//W3C//DTD SVG 20010904//EN"
 "http://www.w3.org/TR/2001/REC-SVG-20010904/DTD/svg10.dtd">
<svg version="1.0" xmlns="http://www.w3.org/2000/svg"
 width="700.000000pt" height="700.000000pt" viewBox="0 0 700.000000 700.000000"
 preserveAspectRatio="xMidYMid meet">
<metadata>
Created by potrace 1.14, written by Peter Selinger 2001-2017
</metadata>
<g transform="translate(0.000000,700.000000) scale(0.100000,-0.100000)"
fill="#000000" stroke="none">
<path d="M3100 6984 c-631 -78 -1182 -295 -1675 -659 -296 -218 -569 -494
-783 -792 -261 -364 -465 -822 -566 -1273 -61 -278 -71 -375 -71 -760 0 -320
3 -369 23 -500 100 -634 322 -1154 712 -1662 119 -155 435 -472 590 -592 508
-392 1034 -618 1670 -718 131 -20 180 -23 500 -23 320 0 369 3 500 23 648 101
1199 342 1705 745 138 110 441 418 549 557 391 506 619 1036 718 1670 20 131
23 180 23 500 0 320 -3 369 -23 500 -100 636 -325 1161 -718 1670 -105 136
-420 455 -554 562 -216 170 -398 286 -640 407 -344 171 -661 271 -1055 332
-183 28 -721 36 -905 13z m2275 -1684 c70 -6 175 -20 233 -31 98 -19 262 -65
262 -74 0 -12 -173 -501 -180 -508 -4 -5 -57 4 -116 19 -92 24 -130 28 -244
29 -152 0 -188 -11 -247 -79 -55 -61 -73 -130 -73 -271 l0 -125 305 0 305 0 0
-270 0 -270 -305 0 -305 0 0 -1035 0 -1035 -360 0 -360 0 0 1035 0 1035 -195
0 -195 0 0 174 0 173 195 94 195 94 0 115 c0 361 59 561 209 710 137 137 293
195 601 224 76 7 153 6 275 -4z m-3115 -1650 l0 -1410 690 0 690 0 0 -295 0
-295 -1055 0 -1055 0 0 1705 0 1705 365 0 365 0 0 -1410z"/>
</g>
</svg>
